<svg class="payment-list__item2" xmlns="http://www.w3.org/2000/svg" xml:space="preserve" width="38" height="24" style="shape-rendering:geometricPrecision;text-rendering:geometricPrecision;image-rendering:optimizeQuality;fill-rule:evenodd;clip-rule:evenodd" viewBox="0 0 8.526 5.387"><path d="M7.852 0H0.674C0.291 0 0 0.291 0 0.674v4.039c0 0.38 0.313 0.674 0.674 0.674h7.178c0.383 0 0.674 -0.294 0.674 -0.674V0.674C8.526 0.291 8.213 0 7.852 0z" style="fill:#b3b3b3;fill-rule:nonzero;fill-opacity:0.4"></path><path d="M7.852 0.224c0.249 0 0.45 0.204 0.45 0.45v4.039c0 0.246 -0.201 0.447 -0.45 0.447H0.674c-0.246 0 -0.45 -0.201 -0.45 -0.447V0.674C0.224 0.428 0.428 0.224 0.674 0.224h7.178z" style="fill:#fff;fill-rule:nonzero"></path><path d="m2.286 2.373 0.169 0.354H2.101l0.185 -0.354zM5.429 2.928h-0.594v-0.192H5.429v-0.176h-0.594v-0.156H5.429v-0.15l0.441 0.399L5.429 3.053v-0.125zm0.616 -0.415 -0.294 -0.284h-1.169v0.875h1.13l0.323 -0.287 0.323 0.287h0.3l-0.46 -0.444 0.473 -0.431h-0.313l-0.313 0.284zm-1.686 -0.284h-0.409l-0.307 0.588 -0.329 -0.588H2.906v0.849L2.484 2.229h-0.383L1.651 3.104h0.275l0.093 -0.198h0.524l0.105 0.198h0.508V2.392L3.513 3.104h0.239l0.358 -0.699v0.699h0.249V2.229zM2.373 3.101H0.437h1.935zm-0.176 -0.013 -0.093 0.192H1.281l0.651 -1.226h1.549l0.156 0.271 0.147 -0.271h2.088l0.179 0.169 0.192 -0.169h0.971l-0.69 0.613 0.658 0.613h-0.939l-0.211 -0.179 -0.208 0.179H2.475l-0.102 -0.192h-0.179z" style="fill:#129ad7;fill-rule:nonzero"></path></svg>