<svg class="payment-list__item2" xmlns="http://www.w3.org/2000/svg" xml:space="preserve" width="38" height="24" style="shape-rendering:geometricPrecision;text-rendering:geometricPrecision;image-rendering:optimizeQuality;fill-rule:evenodd;clip-rule:evenodd" viewBox="0 0 8.526 5.387"><path d="M7.852 0H0.674C0.291 0 0 0.291 0 0.674v4.039c0 0.38 0.313 0.674 0.674 0.674h7.178c0.383 0 0.674 -0.294 0.674 -0.674V0.674C8.526 0.291 8.213 0 7.852 0z" style="fill:#b3b3b3;fill-rule:nonzero;fill-opacity:0.4"></path><path d="M7.852 0.224c0.249 0 0.45 0.204 0.45 0.45v4.039c0 0.246 -0.201 0.447 -0.45 0.447H0.674c-0.246 0 -0.45 -0.201 -0.45 -0.447V0.674C0.224 0.428 0.428 0.224 0.674 0.224h7.178z" style="fill:#fff;fill-rule:nonzero"></path><path d="M2.251 2.047c0.07 -0.022 0.141 -0.035 0.211 -0.035 0.326 0 0.594 0.227 0.655 0.524l0.457 -0.089c-0.102 -0.508 -0.562 -0.891 -1.111 -0.891 -0.125 0 -0.246 0.019 -0.358 0.057l0.147 0.434z" style="fill:#ffca05"></path><path d="m1.721 3.519 0.313 -0.348a0.651 0.651 0 0 1 -0.23 -0.495c0 -0.198 0.089 -0.374 0.23 -0.495l-0.313 -0.345c-0.239 0.204 -0.39 0.505 -0.39 0.84 0 0.335 0.15 0.635 0.39 0.843z" style="fill:#00a4df"></path><path d="M3.117 2.816c-0.061 0.3 -0.329 0.524 -0.655 0.524 -0.07 0 -0.141 -0.01 -0.211 -0.032l-0.147 0.434c0.112 0.035 0.233 0.057 0.358 0.057 0.549 0 1.009 -0.383 1.114 -0.891l-0.46 -0.093z" style="fill:#ee4123"></path><path d="m4.873 3.046 -0.016 -0.01c-0.038 0.061 -0.096 0.109 -0.169 0.141 -0.137 0.064 -0.268 0.048 -0.361 -0.035l-0.01 0.013 -0.156 0.239c0.038 0.026 0.08 0.051 0.125 0.067 0.176 0.073 0.354 0.07 0.53 -0.006 0.128 -0.054 0.23 -0.141 0.297 -0.249l-0.239 -0.16zM4.375 2.456c-0.147 0.064 -0.224 0.204 -0.208 0.367l0.626 -0.271c-0.109 -0.125 -0.246 -0.169 -0.418 -0.096zm-0.415 0.728c-0.016 -0.029 -0.032 -0.061 -0.045 -0.093a0.667 0.667 0 0 1 -0.016 -0.508c0.067 -0.185 0.195 -0.326 0.361 -0.396 0.208 -0.089 0.437 -0.073 0.635 0.045 0.128 0.073 0.217 0.188 0.284 0.345 0.01 0.022 0.016 0.045 0.026 0.061l-1.245 0.546zm1.68 -1.348V3.161l0.204 0.083 -0.115 0.275 -0.227 -0.096a0.25 0.25 0 0 1 -0.112 -0.093 0.302 0.302 0 0 1 -0.045 -0.166V1.836h0.294zm0.53 0.987c0 0.109 0.048 0.211 0.128 0.284l-0.211 0.236c-0.147 -0.134 -0.23 -0.323 -0.23 -0.521 0 -0.198 0.083 -0.386 0.233 -0.517l0.211 0.236c-0.083 0.07 -0.131 0.172 -0.131 0.281zm0.377 0.377c0.179 0 0.329 -0.128 0.364 -0.3l0.31 0.064a0.688 0.688 0 0 1 -0.894 0.517l0.102 -0.3c0.035 0.013 0.073 0.019 0.118 0.019zm0 -1.07c0.332 0 0.61 0.239 0.674 0.556l-0.31 0.064a0.369 0.369 0 0 0 -0.482 -0.281l-0.099 -0.3c0.067 -0.026 0.144 -0.038 0.217 -0.038z" style="fill:#000"></path></svg>