<svg class="payment-list__item2" xmlns="http://www.w3.org/2000/svg" xml:space="preserve" width="38" height="24" style="shape-rendering:geometricPrecision;text-rendering:geometricPrecision;image-rendering:optimizeQuality;fill-rule:evenodd;clip-rule:evenodd" viewBox="0 0 8.267 5.221"><path d="M7.616 0H0.651C0.284 0 0 0.284 0 0.651v3.918c0 0.37 0.303 0.651 0.651 0.651h6.965c0.37 0 0.651 -0.281 0.651 -0.651V0.651C8.267 0.284 7.964 0 7.616 0z" style="fill:#b3b3b3;fill-rule:nonzero;fill-opacity:0.4"></path><path d="M7.616 0.217c0.239 0 0.434 0.195 0.434 0.434v3.918c0 0.239 -0.195 0.434 -0.434 0.434H0.651c-0.239 0 -0.434 -0.195 -0.434 -0.434V0.651c0 -0.239 0.195 -0.434 0.434 -0.434h6.965z" style="fill:#fff;fill-rule:nonzero"></path><path cx="10.14" cy="8.18" r="4.77" style="fill:#eb001b;fill-rule:nonzero" d="M4.761 2.612A1.523 1.523 0 0 1 3.238 4.135A1.523 1.523 0 0 1 1.715 2.612A1.523 1.523 0 0 1 4.761 2.612z"></path><path cx="15.59" cy="8.18" r="4.77" style="fill:#f79e1b;fill-rule:nonzero" d="M6.502 2.612A1.523 1.523 0 0 1 4.978 4.135A1.523 1.523 0 0 1 3.455 2.612A1.523 1.523 0 0 1 6.502 2.612z"></path><path d="M4.761 2.612c0 -0.524 -0.262 -0.98 -0.651 -1.242 -0.393 0.284 -0.655 0.741 -0.655 1.242 0 0.498 0.262 0.977 0.655 1.239a1.49 1.49 0 0 0 0.651 -1.239z" style="fill:#ff5f00;fill-rule:nonzero"></path></svg>