<svg class="payment-list__item2" xmlns="http://www.w3.org/2000/svg" xml:space="preserve" width="38" height="24" viewBox="0 0 3.066 1.935" style="margin-left: 4.5px;"><defs><style>.fil2pix{fill:#4ab7a8;fill-rule:nonzero}</style></defs><g id="Camada_x0020_1"><g id="_1839462261024"><path d="M2.823 0H0.243C0.105 0 0 0.105 0 0.243V1.692c0 0.137 0.112 0.243 0.243 0.243h2.58c0.137 0 0.243 -0.105 0.243 -0.243V0.243C3.066 0.105 2.951 0 2.823 0z" style="fill:#b3b3b3;fill-rule:nonzero;fill-opacity:0.4"></path><path d="M2.823 0.08c0.089 0 0.163 0.073 0.163 0.163V1.692c0 0.089 -0.073 0.163 -0.163 0.163H0.243c-0.089 0 -0.163 -0.073 -0.163 -0.163V0.243C0.08 0.153 0.153 0.08 0.243 0.08h2.58z" style="fill:#fff;fill-rule:nonzero"></path><path class="fil2pix" d="M1.309 1.21c0.019 0 0.035 -0.003 0.054 -0.01 0.016 -0.01 0.032 -0.019 0.045 -0.032l0.141 -0.141c0.003 -0.003 0.01 -0.006 0.019 -0.006 0.006 0 0.013 0.003 0.016 0.006l0.144 0.141c0.013 0.013 0.026 0.026 0.045 0.032 0.016 0.006 0.035 0.01 0.051 0.01h0.029l-0.179 0.179a0.134 0.134 0 0 1 -0.045 0.029c-0.019 0.01 -0.038 0.013 -0.057 0.013a0.121 0.121 0 0 1 -0.054 -0.013 0.134 0.134 0 0 1 -0.045 -0.029l-0.179 -0.179h0.016zm0.514 -0.498c-0.016 0 -0.035 0.003 -0.051 0.01 -0.019 0.006 -0.032 0.016 -0.045 0.029l-0.144 0.144c-0.003 0.003 -0.01 0.006 -0.016 0.006 -0.01 0 -0.016 -0.003 -0.019 -0.006l-0.141 -0.141a0.144 0.144 0 0 0 -0.045 -0.032 0.162 0.162 0 0 0 -0.054 -0.01h-0.016l0.179 -0.179c0.026 -0.029 0.064 -0.042 0.099 -0.042 0.038 0 0.077 0.013 0.102 0.042l0.179 0.179h-0.029z"></path><path class="fil2pix" d="m1.143 0.859 0.109 -0.105h0.057c0.026 0 0.051 0.01 0.067 0.029l0.144 0.141c0.006 0.006 0.013 0.01 0.019 0.013 0.01 0.003 0.019 0.006 0.029 0.006 0.006 0 0.016 -0.003 0.026 -0.006 0.006 -0.003 0.016 -0.006 0.022 -0.013l0.141 -0.141c0.019 -0.019 0.042 -0.029 0.067 -0.029h0.07l0.105 0.105c0.029 0.029 0.042 0.064 0.042 0.102s-0.013 0.073 -0.042 0.099l-0.105 0.109h-0.07c-0.026 0 -0.051 -0.01 -0.067 -0.029l-0.141 -0.141a0.07 0.07 0 0 0 -0.048 -0.019c-0.019 0 -0.035 0.006 -0.048 0.019l-0.144 0.141c-0.016 0.019 -0.042 0.029 -0.067 0.029h-0.057l-0.109 -0.109a0.134 0.134 0 0 1 -0.029 -0.045 0.15 0.15 0 0 1 -0.013 -0.054c0 -0.019 0.006 -0.038 0.013 -0.054 0.006 -0.019 0.016 -0.035 0.029 -0.048z"></path></g></g></svg>