<svg class="payment-list__item2" xmlns="http://www.w3.org/2000/svg" xml:space="preserve" width="38" height="24" style="shape-rendering:geometricPrecision;text-rendering:geometricPrecision;image-rendering:optimizeQuality;fill-rule:evenodd;clip-rule:evenodd" viewBox="0 0 25.89 16.35"><path d="M23.85 0H2.04C.89 0 0 .89 0 2.04v12.27c0 1.16.95 2.04 2.04 2.04h21.81c1.16 0 2.04-.88 2.04-2.04V2.04C25.89.89 24.94 0 23.85 0z" style="fill:#b3b3b3;fill-rule:nonzero;fill-opacity:0.4"></path><path d="M23.85.68c.75 0 1.36.61 1.36 1.36v12.27c0 .75-.61 1.36-1.36 1.36H2.04c-.75 0-1.36-.61-1.36-1.36V2.04c0-.75.61-1.36 1.36-1.36h21.81z" style="fill:#fff;fill-rule:nonzero"></path><path d="M19.22 6.88h-.21c-.27.68-.47 1.01-.67 2.02h1.28c-.2-1.01-.2-1.48-.4-2.02zm1.94 3.97h-1.14c-.07 0-.07 0-.13-.07l-.14-.6-.06-.14h-1.62c-.07 0-.13 0-.13.14l-.2.6c0 .07-.07.07-.07.07h-1.41l.13-.34 1.95-4.57c0-.33.2-.47.54-.47h1.01c.06 0 .13 0 .13.14l.94 4.37c.07.26.14.47.14.73.06.07.06.07.06.14zm-9-.2.27-1.21c.06 0 .13.06.13.06.47.21.94.34 1.41.27.14 0 .34-.06.47-.13.34-.14.34-.47.07-.74-.14-.13-.34-.2-.54-.34-.27-.13-.54-.27-.74-.47-.8-.67-.54-1.61-.07-2.08.95-.63 2.13-.77 3.23-.4h.07c-.07.4-.14.73-.27 1.14-.34-.14-.67-.27-1.01-.27-.2 0-.4 0-.6.07-.14 0-.21.06-.27.13-.14.14-.14.34 0 .47l.33.27c.27.14.54.27.74.4.34.21.68.54.74.95.14.6-.06 1.14-.6 1.54-.34.27-.47.4-.94.4-.28 0-2.36 0-2.42-.06zm-2.36.2c.07-.47.07-.47.14-.67.33-1.48.67-3.03.94-4.51.07-.13.07-.2.2-.2h1.21c-.13.81-.27 1.41-.47 2.15-.2 1.01-.4 2.02-.67 3.03 0 .13-.07.13-.2.13l-1.15.07zM3.55 5.61c0-.07.14-.14.2-.14h2.29c.33 0 .6.2.67.54l.61 2.96c0 .06 0 .06.06.13 0-.07.07-.07.07-.07l1.41-3.42c-.07-.07 0-.14.07-.14h1.41c0 .07 0 .07-.07.14l-2.08 4.9c-.07.14-.07.2-.13.27-.07.07-.21 0-.34 0H6.71c-.07 0-.13 0-.13-.13L5.5 6.48c-.13-.14-.34-.34-.6-.4-.41-.21-1.15-.34-1.28-.34l-.07-.13z" style="fill:#142688;fill-rule:nonzero"></path></svg>